
					<svg version="1.0" xmlns="http://www.w3.org/2000/svg"
					 width="1920.000000pt" height="1080.000000pt" viewBox="0 0 1920.000000 1080.000000"
					 preserveAspectRatio="xMidYMid meet">

						<g transform="translate(0.000000,1080.000000) scale(0.100000,-0.100000)"
						fill="#3e464a" stroke="none">
						<path d="M6075 8357 c-1106 -760 -2051 -1408 -3235 -2217 -646 -442 -1230
						-841 -1298 -887 -97 -67 -122 -89 -122 -107 0 -31 13 -40 92 -64 36 -12 354
						-116 707 -232 l641 -212 2 -457 3 -456 36 -3 c41 -3 51 6 409 393 117 127 225
						243 241 259 l28 30 258 -83 c142 -46 353 -114 468 -152 217 -71 246 -78 262
						-56 9 11 2118 4509 2149 4583 11 26 11 34 -2 52 -8 12 -21 22 -27 21 -7 0
						-282 -186 -612 -412z m279 61 c-69 -71 -1503 -1581 -1664 -1752 -57 -61 -390
						-412 -740 -781 -350 -368 -736 -776 -858 -905 -123 -129 -229 -236 -238 -238
						-8 -2 -137 37 -287 86 -149 49 -436 143 -637 208 -201 65 -367 120 -370 122
						-3 2 2 7 10 12 21 12 2637 1801 3835 2623 550 377 1002 686 1005 687 2 0 -23
						-28 -56 -62z m151 22 c-3 -5 -451 -960 -995 -2122 -544 -1161 -993 -2115 -997
						-2119 -5 -3 -168 46 -363 111 -195 65 -545 180 -778 257 l-424 138 218 230
						c120 127 511 538 869 914 357 376 701 738 764 805 709 749 1704 1796 1708
						1796 2 0 1 -4 -2 -10z m-3272 -3923 c136 -45 247 -84 247 -87 0 -6 -416 -458
						-501 -545 l-39 -40 0 383 0 383 23 -6 c12 -4 133 -43 270 -88z"/>
						<path d="M14653 6221 c-55 -25 -101 -89 -159 -221 -60 -137 -429 -1124 -506
						-1354 -67 -200 -74 -251 -40 -306 15 -24 22 -51 22 -86 0 -64 28 -109 90 -144
						39 -21 57 -25 130 -24 109 1 190 23 315 84 249 122 533 405 665 662 75 147
						105 252 105 368 0 86 -3 99 -28 142 -46 78 -108 98 -227 74 -203 -43 -502
						-260 -727 -529 -40 -48 -73 -84 -73 -79 0 14 142 375 209 531 34 79 120 257
						190 395 128 251 161 339 161 426 0 46 -27 80 -62 80 -13 0 -42 -9 -65 -19z
						m403 -1036 c13 -20 16 -42 12 -101 -4 -64 -12 -89 -51 -168 -173 -348 -529
						-646 -772 -646 -43 0 -59 5 -86 27 -17 15 -37 41 -44 57 -11 27 -10 36 7 71
						65 126 213 310 377 467 216 208 389 317 503 318 29 0 41 -6 54 -25z"/>
						<path d="M9505 6156 c-77 -34 -145 -150 -268 -461 -293 -739 -496 -1480 -447
						-1629 20 -63 86 -69 155 -14 47 37 63 84 80 248 28 268 78 482 188 805 68 199
						106 291 220 536 163 351 198 458 165 502 -18 23 -58 29 -93 13z"/>
						<path d="M5890 6111 c-75 -23 -152 -94 -165 -151 -9 -40 14 -197 31 -211 20
						-16 122 25 167 68 38 37 86 121 112 194 12 32 11 40 -2 59 -17 24 -71 51 -100
						49 -10 0 -29 -4 -43 -8z"/>
						<path d="M7564 5459 c-41 -12 -102 -73 -126 -125 -10 -24 -32 -109 -48 -191
						-89 -438 -243 -907 -468 -1428 -112 -261 -142 -338 -142 -369 0 -25 53 -79 89
						-91 38 -12 109 43 145 114 8 14 47 121 86 236 89 259 135 382 196 527 l47 112
						18 -52 c40 -116 86 -142 221 -123 203 28 434 167 668 401 199 199 317 402 366
						635 19 89 11 156 -26 222 -33 57 -72 86 -142 103 -109 28 -290 -40 -473 -176
						-103 -77 -322 -294 -410 -406 -33 -43 -63 -77 -67 -77 -4 -1 17 70 48 157 102
						290 133 446 103 505 -20 38 -32 42 -85 26z m801 -265 c35 -37 41 -85 22 -171
						-34 -154 -131 -307 -299 -469 -185 -179 -338 -273 -458 -282 -80 -5 -131 13
						-160 60 -26 42 -21 80 20 165 85 171 387 499 582 632 135 91 246 116 293 65z"/>
						<path d="M13429 5445 c-177 -40 -370 -176 -543 -383 -281 -339 -388 -748 -240
						-921 66 -77 197 -112 339 -92 146 20 256 66 411 170 126 83 227 180 259 246
						29 58 30 108 3 113 -9 2 -51 -26 -95 -61 -227 -185 -402 -267 -568 -267 -137
						1 -195 52 -195 171 0 87 16 107 140 169 384 193 632 385 716 554 34 70 39 89
						39 150 0 55 -4 77 -20 98 -46 61 -129 79 -246 53z m49 -177 c18 -18 14 -67 -9
						-114 -27 -58 -153 -174 -275 -255 -111 -74 -314 -192 -321 -186 -7 7 76 158
						125 227 97 137 273 295 367 328 41 14 99 14 113 0z"/>
						<path d="M10390 5415 c-155 -35 -326 -148 -525 -349 -270 -271 -426 -537 -442
						-747 -7 -90 6 -136 51 -183 47 -50 101 -62 199 -43 158 31 341 145 538 335 64
						61 119 112 122 112 3 0 1 -17 -4 -37 -17 -69 -22 -255 -10 -313 32 -149 133
						-188 253 -97 61 47 64 85 10 135 -109 101 -85 269 123 859 28 80 44 141 40
						153 -4 12 -21 24 -48 31 -63 16 -68 21 -86 68 -30 81 -96 104 -221 76z m70
						-195 c29 -29 35 -67 21 -145 -24 -144 -121 -296 -301 -475 -244 -242 -452
						-358 -520 -290 -49 49 -5 209 100 369 157 239 420 498 556 546 58 21 120 19
						144 -5z"/>
						<path d="M16172 5399 c-144 -25 -291 -111 -429 -251 -233 -236 -385 -537 -386
						-763 -1 -288 219 -405 534 -284 161 62 398 249 522 411 256 336 263 736 14
						858 -70 34 -166 45 -255 29z m124 -198 c71 -32 109 -108 108 -216 -1 -177 -91
						-363 -250 -516 -152 -144 -286 -219 -407 -226 -60 -4 -78 -1 -104 16 -126 79
						-80 354 104 629 67 99 169 211 232 254 109 76 231 98 317 59z"/>
						<path d="M18010 5393 c-61 -24 -99 -100 -149 -299 -51 -204 -74 -267 -116
						-331 -61 -92 -246 -227 -429 -313 -190 -89 -282 -93 -302 -13 -12 46 4 186 29
						258 39 112 134 293 203 385 85 116 101 163 72 224 -15 34 -36 39 -92 25 -66
						-17 -102 -63 -205 -269 -151 -303 -223 -509 -225 -650 -2 -140 41 -215 136
						-241 111 -29 347 69 641 267 75 52 137 90 137 86 0 -20 -86 -288 -116 -361
						-45 -110 -143 -296 -202 -386 -60 -91 -165 -195 -226 -225 -44 -21 -57 -22
						-150 -17 -188 10 -317 83 -385 216 -12 22 -25 43 -31 46 -31 19 -99 -75 -100
						-136 -1 -92 193 -251 355 -293 287 -72 486 20 683 319 174 262 313 603 454
						1110 129 465 144 541 116 578 -14 18 -72 31 -98 20z"/>
						<path d="M6924 5380 c-202 -42 -509 -328 -749 -697 -33 -51 -63 -93 -67 -93
						-10 0 66 281 102 378 17 46 51 129 76 184 50 108 63 163 45 195 -25 49 -116
						35 -179 -26 -37 -37 -46 -55 -106 -243 -114 -355 -199 -740 -200 -906 -1 -99
						0 -105 24 -124 19 -16 33 -19 65 -14 79 12 100 41 179 243 97 249 216 423 446
						653 180 180 249 230 329 238 46 4 52 2 93 -36 53 -49 84 -58 131 -39 49 21 71
						59 71 121 0 122 -117 196 -260 166z"/>
						<path d="M5505 5345 c-37 -19 -69 -67 -90 -137 -9 -29 -63 -179 -120 -333
						-155 -420 -206 -594 -208 -712 -1 -105 48 -144 135 -105 75 34 85 52 92 177
						13 236 81 454 256 823 44 93 83 183 86 200 8 39 -10 71 -51 88 -43 18 -62 17
						-100 -1z"/>
						<path d="M11235 5279 c-62 -57 -73 -81 -106 -231 -47 -214 -101 -397 -186
						-633 -67 -186 -78 -234 -59 -280 11 -26 24 -36 55 -46 105 -31 168 26 478 441
						121 162 252 329 290 370 117 125 210 160 257 97 19 -26 21 -41 20 -180 0 -84
						-4 -238 -9 -342 -7 -181 -7 -193 13 -237 25 -56 66 -81 137 -82 70 -1 134 20
						191 63 118 89 128 196 14 156 -93 -33 -141 -10 -155 75 -4 22 1 149 10 283 13
						188 14 261 6 320 -18 126 -59 186 -142 208 -39 11 -57 10 -113 -4 -36 -9 -87
						-28 -114 -43 -93 -54 -248 -225 -449 -494 -188 -253 -218 -289 -230 -277 -6 7
						14 64 131 378 76 206 107 317 109 399 2 68 -9 85 -65 95 -33 6 -41 3 -83 -36z"/>
						</g>
					</svg>
